<svg width="127" height="35" viewBox="0 0 127 35" xmlns="http://www.w3.org/2000/svg"><g fill="#000" fill-rule="nonzero"><path d="M126.284104 7.201646h-6.013529c-.316426 0-.572717.257819-.572717.5761318v13.2510288c0 .3183127-.256291.5761317-.572717.5761317h-5.011274c-.316426 0-.572717-.257819-.572717-.5761317V7.7777778c0-.3183128-.256291-.5761317-.572717-.5761317h-6.013529c-.316426 0-.572717.257819-.572717.5761317v13.4310699c0 .2520576.108816.4911523.299245.6553498l6.537565 5.6561729c.20761.1800411.472491.2779835.747395.2779835h5.307655c.273473 0 .538354-.0993827.747396-.2779835l6.537565-5.6561729c.190428-.1641975.299245-.4032922.299245-.6553498v-13.43107c-.001432-.3183127-.257723-.5761316-.574149-.5761316zM104.807215 21.6049383H92.6369786c-.3164262 0-.572717-.257819-.572717-.5761317V7.7777778c0-.3183128-.2562909-.5761317-.5727171-.5761317h-6.0135287c-.3164262 0-.572717.257819-.572717.5761317v9.9382716c0 5.5683127 4.4872378 10.0823045 10.0225479 10.0823045h9.8793683c.316426 0 .572717-.2578189.572717-.5761317V22.18107c0-.3183128-.256291-.5761317-.572717-.5761317zM77.746336 7.201646h-8.1612176c-3.4005074 0-6.156708 2.7726338-6.156708 6.1934157v8.2098766c0 3.4207819 2.7562006 6.1934156 6.156708 6.1934156h8.1612176c3.4005073 0 6.156708-2.7726337 6.156708-6.1934156v-8.2098766c0-3.4207819-2.7562007-6.1934156-6.156708-6.1934156zm0 13.8271606c0 .3183127-.2562909.5761317-.5727171.5761317h-7.0157835c-.3164262 0-.572717-.257819-.572717-.5761317v-7.0576132c0-.3183127.2562908-.5761317.572717-.5761317h7.0157835c.3164262 0 .5727171.257819.5727171.5761317v7.0576132z"/><path d="M73.7673844 15.2588477c-.6428748-.6467078-1.6852198-.6467078-2.3280947 0-.6428748.6467079-.6428748 1.6952675 0 2.3419753l2.126212 2.1388889c.6428749.6467079 1.6852198.6467079 2.3280947 0 .6428749-.6467078.6428749-1.6952675 0-2.3419753l-2.126212-2.1388889zM59.6456144 17.3372428c1.6193574-.56893 2.7805412-2.1187243 2.7805412-3.9421811 0-3.4207819-2.7562007-6.1934156-6.156708-6.1934156H48.10823c-3.4005073 0-6.156708 2.7726337-6.156708 6.1934156 0 1.8234568 1.1611837 3.3732511 2.7805411 3.9421811.2305186.0806584.2448366.3989712.0229087.4983539-1.6508568.7374486-2.8034498 2.4010288-2.8034498 4.335391 0 4.3310699 3.8658399 5.6273662 7.1589628 5.6273662h6.156708c3.2931229 0 7.1589628-1.2962963 7.1589628-5.6259259 0-1.9343622-1.1511612-3.5979424-2.8034499-4.335391-.2219278-.100823-.2076099-.4176954.0229087-.4997942zm-4.2109019 3.5720165c.1546336.0417695.2620181.1814814.2620181.341358 0 .1958848-.1574972.354321-.352221.354321H49.033168c-.1947238 0-.352221-.1584362-.352221-.354321 0-.1613169.1073845-.2995885.2620181-.341358 1.497655-.4018519 2.601567-1.775926 2.601567-3.4092593s-1.103912-3.0059671-2.601567-3.4092593c-.1546336-.0417695-.2620181-.1814814-.2620181-.341358 0-.1958848.1574972-.354321.352221-.354321h6.3113416c.1947238 0 .352221.1584362.352221.354321 0 .1613169-.1073845.2995885-.2620181.341358-1.497655.4032922-2.6015671 1.775926-2.6015671 3.4092593s1.1039121 3.0059671 2.6015671 3.4092593zM3.078354 0c1.7001248 0 3.078354 1.3864465 3.078354 3.0967078v18.5082305c3.6137077 0 6.6020558 2.6935136 7.0893894 6.1936369l-6.0871346-.0002213C3.2051822 27.7983539 0 24.5740329 0 20.5967078v-17.5C0 1.3864465 1.3782292 0 3.078354 0zm17.897407 14.4032922c3.6769865 0 6.6578354 2.9986214 6.6578354 6.6975308 0 3.6989095-2.9808489 6.6975309-6.6578354 6.6975309l-6.5882614.0002213c.4873375-3.5001233 3.4757073-6.1936369 7.0893888-6.1936369v-1.0082305h-1.0022548c-3.400221 0-6.156708-2.7729218-6.156708-6.1934156h6.6578354zM21.4768884 3.0967078C21.4768884 1.3864465 22.8551319 0 24.5552424 0s3.078354 1.3864465 3.078354 3.0967078v10.2983539h-6.156708V3.0967078z"/><path d="M13.3156708 7.201646h-6.156708v3.0967079c0 1.7102469 1.3782292 3.0967078 3.078354 3.0967078 1.7001105 0 3.078354-1.3864609 3.078354-3.0967078V7.2016461zM20.4746336 7.201646h-6.156708v6.1934157h6.156708z"/></g></svg>